<?xml version="1.0" standalone="no"?>
<!DOCTYPE svg PUBLIC "-//W3C//DTD SVG 20010904//EN"
 "http://www.w3.org/TR/2001/REC-SVG-20010904/DTD/svg10.dtd">
<svg version="1.0" xmlns="http://www.w3.org/2000/svg"
 width="216.000000pt" height="216.000000pt" viewBox="0 0 216.000000 216.000000"
 preserveAspectRatio="xMidYMid meet">

<g transform="translate(0.000000,216.000000) scale(0.100000,-0.100000)"
fill="#000000" stroke="none">
<path d="M832 1029 c-113 -57 -107 -224 9 -273 32 -13 57 -17 82 -12 44 8 94
45 76 56 -7 5 -21 0 -32 -11 -25 -23 -86 -25 -126 -4 -32 16 -61 69 -61 110 0
41 29 94 61 110 37 20 89 19 118 -1 15 -11 26 -13 33 -6 14 14 -32 43 -79 48
-26 4 -51 -2 -81 -17z"/>
<path d="M1615 1036 c-17 -7 -43 -28 -58 -45 -23 -28 -27 -42 -27 -96 0 -57 3
-68 30 -99 37 -41 87 -60 138 -51 44 7 88 37 78 54 -5 8 -15 5 -33 -9 -38 -29
-103 -27 -142 5 -63 53 -63 146 0 199 35 30 93 35 125 11 24 -18 44 -19 44 -2
0 34 -104 57 -155 33z"/>
<path d="M420 895 c0 -90 4 -145 10 -145 6 0 10 30 10 70 l0 70 80 0 80 0 0
-70 c0 -56 3 -70 15 -70 13 0 15 23 15 145 0 122 -2 145 -15 145 -12 0 -15
-14 -15 -65 l0 -66 -77 3 -78 3 -3 63 c-2 34 -7 62 -12 62 -6 0 -10 -60 -10
-145z"/>
<path d="M1120 895 c0 -122 2 -145 15 -145 12 0 15 21 16 123 l0 122 52 -123
c28 -67 56 -121 60 -119 5 1 30 53 55 115 25 62 50 112 55 112 4 0 7 -50 6
-112 -1 -76 2 -113 10 -116 8 -3 11 39 11 143 0 143 0 146 -21 143 -17 -2 -31
-27 -66 -115 -25 -62 -48 -111 -52 -108 -4 2 -27 54 -52 114 -38 95 -47 111
-66 111 -23 0 -23 -1 -23 -145z"/>
<path d="M400 530 c0 -73 2 -80 20 -80 16 0 20 7 20 35 0 33 2 35 35 35 33 0
35 -2 35 -35 0 -28 4 -35 20 -35 18 0 20 7 20 80 0 73 -2 80 -20 80 -16 0 -20
-7 -20 -31 0 -28 -2 -30 -32 -27 -28 2 -34 8 -36 31 -2 19 -9 27 -23 27 -17 0
-19 -8 -19 -80z"/>
<path d="M630 590 c-27 -27 -27 -89 0 -118 28 -30 101 -31 130 -2 20 20 22 25
22 60 0 35 -2 40 -22 60 -14 14 -33 20 -65 20 -32 0 -51 -6 -65 -20z m106 -35
c15 -23 15 -27 0 -50 -29 -44 -86 -28 -86 25 0 53 57 69 86 25z"/>
<path d="M850 531 c0 -65 3 -81 15 -81 11 0 15 12 15 51 0 59 12 57 30 -6 18
-65 41 -60 66 13 l19 57 3 -57 c2 -43 7 -58 17 -58 12 0 15 17 15 81 l0 80
-27 -3 c-21 -2 -29 -11 -41 -45 -7 -24 -17 -43 -21 -43 -3 0 -13 19 -21 43
-12 34 -20 43 -42 45 l-28 3 0 -80z"/>
<path d="M1100 530 l0 -80 60 0 c47 0 60 3 60 15 0 11 -11 15 -40 15 -29 0
-40 4 -40 15 0 10 11 15 35 15 28 0 35 4 35 20 0 16 -7 20 -35 20 -24 0 -35 5
-35 15 0 10 11 15 35 15 24 0 35 5 35 15 0 12 -13 15 -55 15 l-55 0 0 -80z"/>
<path d="M1280 530 l0 -80 50 0 c37 0 50 4 50 14 0 9 -12 16 -32 18 -33 3 -33
3 -36 66 -2 46 -7 62 -17 62 -12 0 -15 -17 -15 -80z"/>
<path d="M1420 552 c0 -78 17 -102 75 -102 55 0 65 16 65 99 0 48 -3 61 -15
61 -11 0 -15 -13 -15 -52 0 -64 -10 -81 -41 -76 -22 3 -24 8 -27 66 -3 54 -6
62 -22 62 -18 0 -20 -7 -20 -58z"/>
<path d="M1626 598 c4 -7 15 -25 25 -39 18 -25 17 -27 -6 -62 -30 -44 -31 -47
-5 -47 12 0 25 10 32 25 6 14 15 25 20 25 5 0 14 -11 20 -25 7 -17 19 -25 36
-25 23 0 23 1 10 23 -43 66 -43 62 -20 95 27 37 27 42 2 42 -10 0 -24 -9 -30
-20 -6 -11 -15 -20 -20 -20 -5 0 -12 9 -15 20 -4 13 -15 20 -31 20 -17 0 -23
-4 -18 -12z"/>
</g>
</svg>
